<svg width="166" height="44" viewBox="0 0 166 44" fill="none" xmlns="http://www.w3.org/2000/svg">
<g filter="url(#filter0_d_2147_4185)">
<path d="M49.0024 27.8182V9.53181H50.732L57.6504 19.4973H56.6868L63.5805 9.53181H65.31V27.8182H63.3334V12.1827L63.9758 12.4282L57.2057 22.1727H57.1068L50.3614 12.4282L50.9791 12.1827V27.8182H49.0024Z" fill="#141624"/>
<path d="M75.4143 28.1127C74.1789 28.1127 73.0587 27.8182 72.0539 27.2291C71.0656 26.6236 70.2831 25.7973 69.7066 24.75C69.1301 23.7027 68.8418 22.5164 68.8418 21.1909C68.8418 19.8655 69.1218 18.6955 69.6819 17.6809C70.242 16.65 70.9997 15.84 71.9551 15.2509C72.927 14.6618 74.0141 14.3673 75.2166 14.3673C76.172 14.3673 77.0203 14.5473 77.7616 14.9073C78.5193 15.2509 79.1617 15.7255 79.6888 16.3309C80.216 16.92 80.6195 17.5909 80.8996 18.3436C81.1796 19.08 81.3196 19.8409 81.3196 20.6264C81.3196 20.79 81.3114 20.9782 81.2949 21.1909C81.2784 21.3873 81.2537 21.5918 81.2208 21.8045H70.0278V20.0864H80.1583L79.2688 20.8227C79.4171 19.9227 79.31 19.1209 78.9476 18.4173C78.6017 17.6973 78.0993 17.1327 77.4404 16.7236C76.7815 16.2982 76.0402 16.0855 75.2166 16.0855C74.393 16.0855 73.627 16.2982 72.9187 16.7236C72.2269 17.1491 71.6833 17.7464 71.288 18.5155C70.8926 19.2682 70.7361 20.1682 70.8185 21.2155C70.7361 22.2627 70.9009 23.1791 71.3127 23.9645C71.7409 24.7336 72.3175 25.3309 73.0423 25.7564C73.7835 26.1818 74.5742 26.3945 75.4143 26.3945C76.3861 26.3945 77.2015 26.1655 77.8604 25.7073C78.5193 25.2491 79.0547 24.6764 79.4665 23.9891L81.0478 24.8236C80.7843 25.4127 80.3807 25.9609 79.8371 26.4682C79.2935 26.9591 78.6429 27.36 77.8851 27.6709C77.1439 27.9655 76.3203 28.1127 75.4143 28.1127Z" fill="#141624"/>
<path d="M89.6522 27.9655C88.4662 27.9655 87.5519 27.6218 86.9095 26.9345C86.2671 26.2473 85.9459 25.2655 85.9459 23.9891V16.5027H83.4997V14.6618H84.1175C84.6775 14.6618 85.1223 14.4818 85.4517 14.1218C85.7812 13.7455 85.9459 13.2791 85.9459 12.7227V11.6182H87.799V14.6618H90.7146V16.5027H87.799V23.9891C87.799 24.4309 87.8649 24.8236 87.9967 25.1673C88.1285 25.4945 88.3508 25.7564 88.6638 25.9527C88.9933 26.1491 89.4298 26.2473 89.9734 26.2473C90.1052 26.2473 90.2616 26.2391 90.4428 26.2227C90.624 26.2064 90.7805 26.19 90.9123 26.1736V27.8182C90.7146 27.8673 90.4923 27.9 90.2452 27.9164C89.9981 27.9491 89.8004 27.9655 89.6522 27.9655Z" fill="#141624"/>
<path d="M97.7548 28.1127C96.9147 28.1127 96.1652 27.9573 95.5063 27.6464C94.8474 27.3191 94.3286 26.8773 93.9497 26.3209C93.5708 25.7645 93.3814 25.1264 93.3814 24.4064C93.3814 23.7191 93.5297 23.0973 93.8262 22.5409C94.1227 21.9682 94.5839 21.4855 95.2098 21.0927C95.8358 20.7 96.6347 20.4218 97.6066 20.2582L102.795 19.3991V21.0682L98.0513 21.8536C97.0959 22.0173 96.4041 22.32 95.9758 22.7618C95.564 23.2036 95.3581 23.7273 95.3581 24.3327C95.3581 24.9218 95.5887 25.4209 96.0499 25.83C96.5276 26.2391 97.1371 26.4436 97.8784 26.4436C98.7843 26.4436 99.575 26.2555 100.25 25.8791C100.926 25.4864 101.453 24.9627 101.832 24.3082C102.211 23.6536 102.4 22.9255 102.4 22.1236V18.7855C102.4 18 102.112 17.3618 101.535 16.8709C100.959 16.38 100.209 16.1345 99.2867 16.1345C98.4796 16.1345 97.7713 16.3391 97.1618 16.7482C96.5523 17.1409 96.0993 17.6564 95.8028 18.2945L94.1227 17.3864C94.3697 16.83 94.7568 16.3227 95.284 15.8645C95.8275 15.4064 96.4453 15.0464 97.1371 14.7845C97.8289 14.5064 98.5455 14.3673 99.2867 14.3673C100.259 14.3673 101.115 14.5555 101.856 14.9318C102.614 15.3082 103.199 15.8318 103.611 16.5027C104.039 17.1573 104.253 17.9182 104.253 18.7855V27.8182H102.4V25.1918L102.672 25.4618C102.441 25.9527 102.079 26.4027 101.585 26.8118C101.107 27.2045 100.539 27.5236 99.8797 27.7691C99.2373 27.9982 98.529 28.1127 97.7548 28.1127Z" fill="#141624"/>
<path d="M109.406 27.8182V9.53182H117.19C118.458 9.53182 119.545 9.74455 120.451 10.17C121.357 10.5955 122.049 11.2091 122.527 12.0109C123.004 12.7964 123.243 13.7536 123.243 14.8827C123.243 15.6846 123.021 16.4536 122.576 17.19C122.131 17.91 121.398 18.5155 120.377 19.0064V17.1409C121.349 17.5173 122.098 17.9673 122.626 18.4909C123.153 19.0146 123.515 19.5873 123.713 20.2091C123.91 20.8146 124.009 21.4527 124.009 22.1236C124.009 23.9236 123.408 25.3227 122.205 26.3209C121.003 27.3191 119.331 27.8182 117.19 27.8182H109.406ZM113.236 24.5046H117.634C118.409 24.5046 119.026 24.2836 119.488 23.8418C119.949 23.4 120.179 22.8273 120.179 22.1236C120.179 21.4036 119.949 20.8227 119.488 20.3809C119.026 19.9391 118.409 19.7182 117.634 19.7182H113.236V24.5046ZM113.236 16.4046H117.461C118.054 16.4046 118.524 16.2409 118.87 15.9136C119.232 15.57 119.413 15.12 119.413 14.5636C119.413 14.0073 119.232 13.5655 118.87 13.2382C118.524 12.8946 118.054 12.7227 117.461 12.7227H113.236V16.4046Z" fill="#141624"/>
<path d="M126.194 27.8182V9.23728H129.9V27.8182H126.194Z" fill="#141624"/>
<path d="M139.309 28.1127C137.974 28.1127 136.755 27.81 135.652 27.2046C134.565 26.5991 133.692 25.7727 133.033 24.7255C132.39 23.6618 132.069 22.4591 132.069 21.1173C132.069 19.7591 132.39 18.5564 133.033 17.5091C133.692 16.4618 134.565 15.6355 135.652 15.03C136.755 14.4246 137.974 14.1218 139.309 14.1218C140.643 14.1218 141.854 14.4246 142.941 15.03C144.028 15.6355 144.893 16.4618 145.535 17.5091C146.194 18.5564 146.523 19.7591 146.523 21.1173C146.523 22.4591 146.194 23.6618 145.535 24.7255C144.893 25.7727 144.028 26.5991 142.941 27.2046C141.854 27.81 140.643 28.1127 139.309 28.1127ZM139.309 24.7991C139.984 24.7991 140.569 24.6436 141.063 24.3327C141.574 24.0218 141.969 23.5882 142.249 23.0318C142.545 22.4755 142.694 21.8373 142.694 21.1173C142.694 20.3973 142.545 19.7673 142.249 19.2273C141.969 18.6709 141.574 18.2373 141.063 17.9264C140.569 17.5991 139.984 17.4355 139.309 17.4355C138.633 17.4355 138.04 17.5991 137.53 17.9264C137.019 18.2373 136.615 18.6709 136.319 19.2273C136.039 19.7673 135.899 20.3973 135.899 21.1173C135.899 21.8373 136.039 22.4755 136.319 23.0318C136.615 23.5882 137.019 24.0218 137.53 24.3327C138.04 24.6436 138.633 24.7991 139.309 24.7991Z" fill="#141624"/>
<path d="M155.329 33.2182C154.291 33.2182 153.327 33.0464 152.438 32.7027C151.548 32.3591 150.782 31.8764 150.14 31.2546C149.514 30.6491 149.061 29.9291 148.781 29.0946L152.216 27.8918C152.397 28.5136 152.767 29.0046 153.327 29.3646C153.887 29.7246 154.555 29.9046 155.329 29.9046C155.938 29.9046 156.465 29.79 156.91 29.5609C157.355 29.3482 157.693 29.0291 157.923 28.6036C158.17 28.1782 158.294 27.6791 158.294 27.1064V24.0382L159.01 24.9218C158.549 25.6746 157.956 26.2391 157.231 26.6155C156.507 26.9755 155.658 27.1555 154.686 27.1555C153.434 27.1555 152.314 26.8773 151.326 26.3209C150.338 25.7482 149.563 24.9709 149.003 23.9891C148.443 22.9909 148.163 21.8618 148.163 20.6018C148.163 19.3418 148.443 18.2291 149.003 17.2636C149.563 16.2818 150.329 15.5127 151.301 14.9564C152.273 14.4 153.377 14.1218 154.612 14.1218C155.584 14.1218 156.432 14.3182 157.157 14.7109C157.882 15.0873 158.5 15.6682 159.01 16.4536L158.541 17.3373V14.4164H162V27.1064C162 28.2846 161.712 29.3318 161.135 30.2482C160.559 31.1809 159.768 31.9091 158.763 32.4327C157.775 32.9564 156.63 33.2182 155.329 33.2182ZM155.205 23.8173C155.831 23.8173 156.375 23.6864 156.836 23.4246C157.297 23.1627 157.651 22.7946 157.898 22.32C158.162 21.8455 158.294 21.2891 158.294 20.6509C158.294 20.0127 158.162 19.4564 157.898 18.9818C157.635 18.4909 157.273 18.1146 156.811 17.8527C156.35 17.5746 155.815 17.4355 155.205 17.4355C154.579 17.4355 154.019 17.5746 153.525 17.8527C153.047 18.1146 152.668 18.4909 152.388 18.9818C152.125 19.4564 151.993 20.0127 151.993 20.6509C151.993 21.2727 152.125 21.8209 152.388 22.2955C152.668 22.77 153.047 23.1464 153.525 23.4246C154.019 23.6864 154.579 23.8173 155.205 23.8173Z" fill="#141624"/>
<path d="M22 36C31.9411 36 40 27.9411 40 18C40 8.05888 31.9411 0 22 0C12.0589 0 4 8.05888 4 18C4 22.152 5.40577 25.9756 7.76732 29.021L11.7355 14.0299C13.3867 7.52344 17.6758 4.15725 24.5616 4.15725H26.936C31.7785 4.15725 35.335 8.70307 34.1698 13.4033C33.9609 14.2463 33.5702 15.0334 33.0253 15.7097L31.0045 18.2174C30.486 18.8609 30.2968 19.7092 30.493 20.5121L31.109 23.0338C31.4278 24.339 31.3695 25.708 30.941 26.9814C29.4832 31.3132 25.4227 34.231 20.8521 34.231H14.2086C16.5662 35.3648 19.2089 36 22 36Z" fill="#141624"/>
<path fill-rule="evenodd" clip-rule="evenodd" d="M21.7 21.7592H18.1932C17.0747 21.7592 16.0968 22.5135 15.8129 23.5953L14.4373 28.8354H19.871C21.8811 28.8354 23.6384 27.4799 24.1487 25.5357L24.2666 25.0865C24.7082 23.4043 23.4392 21.7592 21.7 21.7592ZM20.6646 23.3514H18.759C18.1206 23.3514 17.5623 23.7814 17.3993 24.3988L16.6486 27.2432H19.6532C20.7647 27.2432 21.7364 26.4977 22.0186 25.4284L22.0838 25.1814C22.328 24.2562 21.6263 23.3514 20.6646 23.3514Z" fill="#141624"/>
<path fill-rule="evenodd" clip-rule="evenodd" d="M18.9971 11.7427C19.2811 10.6609 20.2589 9.90663 21.3774 9.90663H24.8843C26.6235 9.90663 27.8925 11.5517 27.4509 13.2339L27.333 13.6831C26.8227 15.6273 25.0654 16.9828 23.0553 16.9828H17.6216L18.9971 11.7427ZM20.5836 12.5462C20.7465 11.9289 21.3049 11.4988 21.9433 11.4988H23.8489C24.8106 11.4988 25.5123 12.4036 25.2681 13.3288L25.2029 13.5758C24.9207 14.6451 23.949 15.3907 22.8375 15.3907H19.8329L20.5836 12.5462Z" fill="#141624"/>
</g>
<defs>
<filter id="filter0_d_2147_4185" x="0" y="0" width="166" height="44" filterUnits="userSpaceOnUse" color-interpolation-filters="sRGB">
<feFlood flood-opacity="0" result="BackgroundImageFix"/>
<feColorMatrix in="SourceAlpha" type="matrix" values="0 0 0 0 0 0 0 0 0 0 0 0 0 0 0 0 0 0 127 0" result="hardAlpha"/>
<feOffset dy="4"/>
<feGaussianBlur stdDeviation="2"/>
<feComposite in2="hardAlpha" operator="out"/>
<feColorMatrix type="matrix" values="0 0 0 0 0 0 0 0 0 0 0 0 0 0 0 0 0 0 0.25 0"/>
<feBlend mode="normal" in2="BackgroundImageFix" result="effect1_dropShadow_2147_4185"/>
<feBlend mode="normal" in="SourceGraphic" in2="effect1_dropShadow_2147_4185" result="shape"/>
</filter>
</defs>
</svg>
